<mxfile host="Electron" agent="Mozilla/5.0 (Windows NT 10.0; Win64; x64) AppleWebKit/537.36 (KHTML, like Gecko) draw.io/24.7.17 Chrome/128.0.6613.36 Electron/32.0.1 Safari/537.36" version="24.7.17">
  <diagram name="Page-1" id="-pgPHjdQSfQavGY86Az-">
    <mxGraphModel dx="2924" dy="1364" grid="1" gridSize="10" guides="1" tooltips="1" connect="1" arrows="1" fold="1" page="1" pageScale="1" pageWidth="850" pageHeight="1100" math="0" shadow="0">
      <root>
        <mxCell id="0" />
        <mxCell id="1" parent="0" />
        <mxCell id="5CnpQcvF3NgObZ_mpEZ_-11" value="" style="rounded=0;whiteSpace=wrap;html=1;" vertex="1" parent="1">
          <mxGeometry x="40" y="230" width="60" height="100" as="geometry" />
        </mxCell>
        <mxCell id="5CnpQcvF3NgObZ_mpEZ_-1" value="" style="rounded=0;whiteSpace=wrap;html=1;" vertex="1" parent="1">
          <mxGeometry x="-310" y="450" width="1150" height="270" as="geometry" />
        </mxCell>
        <mxCell id="5CnpQcvF3NgObZ_mpEZ_-2" value="" style="rounded=0;whiteSpace=wrap;html=1;" vertex="1" parent="1">
          <mxGeometry x="-310" y="780" width="1150" height="270" as="geometry" />
        </mxCell>
        <mxCell id="5CnpQcvF3NgObZ_mpEZ_-3" value="" style="ellipse;whiteSpace=wrap;html=1;aspect=fixed;" vertex="1" parent="1">
          <mxGeometry x="660" y="850" width="130" height="130" as="geometry" />
        </mxCell>
        <mxCell id="5CnpQcvF3NgObZ_mpEZ_-4" value="USB" style="rounded=0;whiteSpace=wrap;html=1;" vertex="1" parent="1">
          <mxGeometry x="685" y="880" width="80" height="30" as="geometry" />
        </mxCell>
        <mxCell id="5CnpQcvF3NgObZ_mpEZ_-5" value="USB" style="rounded=0;whiteSpace=wrap;html=1;" vertex="1" parent="1">
          <mxGeometry x="685" y="920" width="80" height="30" as="geometry" />
        </mxCell>
        <mxCell id="5CnpQcvF3NgObZ_mpEZ_-8" value="24V Btn" style="rounded=0;whiteSpace=wrap;html=1;" vertex="1" parent="1">
          <mxGeometry x="-320" y="240" width="70" height="70" as="geometry" />
        </mxCell>
        <mxCell id="5CnpQcvF3NgObZ_mpEZ_-9" value="Wippschalter" style="rounded=0;whiteSpace=wrap;html=1;" vertex="1" parent="1">
          <mxGeometry x="-150" y="240" width="80" height="60" as="geometry" />
        </mxCell>
        <mxCell id="5CnpQcvF3NgObZ_mpEZ_-10" value="Poti" style="ellipse;whiteSpace=wrap;html=1;aspect=fixed;" vertex="1" parent="1">
          <mxGeometry x="40" y="230" width="60" height="60" as="geometry" />
        </mxCell>
        <mxCell id="5CnpQcvF3NgObZ_mpEZ_-41" value="" style="rounded=0;whiteSpace=wrap;html=1;" vertex="1" parent="1">
          <mxGeometry x="-130" y="970" width="110" height="60" as="geometry" />
        </mxCell>
        <mxCell id="5CnpQcvF3NgObZ_mpEZ_-42" value="Poti" style="ellipse;whiteSpace=wrap;html=1;aspect=fixed;" vertex="1" parent="1">
          <mxGeometry x="-130" y="970" width="60" height="60" as="geometry" />
        </mxCell>
        <mxCell id="5CnpQcvF3NgObZ_mpEZ_-43" value="" style="rounded=0;whiteSpace=wrap;html=1;" vertex="1" parent="1">
          <mxGeometry x="15" y="970" width="110" height="60" as="geometry" />
        </mxCell>
        <mxCell id="5CnpQcvF3NgObZ_mpEZ_-44" value="Poti" style="ellipse;whiteSpace=wrap;html=1;aspect=fixed;" vertex="1" parent="1">
          <mxGeometry x="15" y="970" width="60" height="60" as="geometry" />
        </mxCell>
        <mxCell id="5CnpQcvF3NgObZ_mpEZ_-45" value="" style="rounded=0;whiteSpace=wrap;html=1;" vertex="1" parent="1">
          <mxGeometry x="160" y="970" width="110" height="60" as="geometry" />
        </mxCell>
        <mxCell id="5CnpQcvF3NgObZ_mpEZ_-46" value="Poti" style="ellipse;whiteSpace=wrap;html=1;aspect=fixed;" vertex="1" parent="1">
          <mxGeometry x="160" y="970" width="60" height="60" as="geometry" />
        </mxCell>
        <mxCell id="5CnpQcvF3NgObZ_mpEZ_-47" value="&lt;div&gt;Main&lt;/div&gt;Volume" style="text;html=1;align=center;verticalAlign=middle;whiteSpace=wrap;rounded=0;" vertex="1" parent="1">
          <mxGeometry x="-140" y="930" width="60" height="30" as="geometry" />
        </mxCell>
        <mxCell id="5CnpQcvF3NgObZ_mpEZ_-48" value="" style="rounded=0;whiteSpace=wrap;html=1;" vertex="1" parent="1">
          <mxGeometry x="-270" y="830" width="110" height="60" as="geometry" />
        </mxCell>
        <mxCell id="5CnpQcvF3NgObZ_mpEZ_-49" value="Encoder" style="ellipse;whiteSpace=wrap;html=1;aspect=fixed;" vertex="1" parent="1">
          <mxGeometry x="-270" y="830" width="60" height="60" as="geometry" />
        </mxCell>
        <mxCell id="5CnpQcvF3NgObZ_mpEZ_-50" value="" style="rounded=0;whiteSpace=wrap;html=1;" vertex="1" parent="1">
          <mxGeometry x="-270" y="930" width="110" height="60" as="geometry" />
        </mxCell>
        <mxCell id="5CnpQcvF3NgObZ_mpEZ_-51" value="Encoder" style="ellipse;whiteSpace=wrap;html=1;aspect=fixed;" vertex="1" parent="1">
          <mxGeometry x="-270" y="930" width="60" height="60" as="geometry" />
        </mxCell>
        <mxCell id="5CnpQcvF3NgObZ_mpEZ_-52" value="FX1 Volume" style="text;html=1;align=center;verticalAlign=middle;whiteSpace=wrap;rounded=0;" vertex="1" parent="1">
          <mxGeometry x="15" y="930" width="60" height="30" as="geometry" />
        </mxCell>
        <mxCell id="5CnpQcvF3NgObZ_mpEZ_-53" value="FX2 Volume" style="text;html=1;align=center;verticalAlign=middle;whiteSpace=wrap;rounded=0;" vertex="1" parent="1">
          <mxGeometry x="160" y="930" width="60" height="30" as="geometry" />
        </mxCell>
        <mxCell id="5CnpQcvF3NgObZ_mpEZ_-54" value="Prev&lt;br&gt;Page" style="rounded=0;whiteSpace=wrap;html=1;" vertex="1" parent="1">
          <mxGeometry x="310" y="960" width="70" height="70" as="geometry" />
        </mxCell>
        <mxCell id="5CnpQcvF3NgObZ_mpEZ_-55" value="Next&lt;br&gt;Page" style="rounded=0;whiteSpace=wrap;html=1;" vertex="1" parent="1">
          <mxGeometry x="390" y="960" width="70" height="70" as="geometry" />
        </mxCell>
        <mxCell id="5CnpQcvF3NgObZ_mpEZ_-116" value="Global" style="text;html=1;align=center;verticalAlign=middle;whiteSpace=wrap;rounded=0;" vertex="1" parent="1">
          <mxGeometry x="670" y="460" width="60" height="30" as="geometry" />
        </mxCell>
        <mxCell id="5CnpQcvF3NgObZ_mpEZ_-117" value="Set" style="rounded=0;whiteSpace=wrap;html=1;" vertex="1" parent="1">
          <mxGeometry x="580" y="585" width="40" height="40" as="geometry" />
        </mxCell>
        <mxCell id="5CnpQcvF3NgObZ_mpEZ_-118" value="Hold" style="rounded=0;whiteSpace=wrap;html=1;fillColor=#f8cecc;strokeColor=#b85450;" vertex="1" parent="1">
          <mxGeometry x="630" y="585" width="40" height="40" as="geometry" />
        </mxCell>
        <mxCell id="5CnpQcvF3NgObZ_mpEZ_-119" value="C" style="rounded=0;whiteSpace=wrap;html=1;" vertex="1" parent="1">
          <mxGeometry x="680" y="585" width="40" height="40" as="geometry" />
        </mxCell>
        <mxCell id="5CnpQcvF3NgObZ_mpEZ_-120" value="1" style="rounded=0;whiteSpace=wrap;html=1;fillColor=#fff2cc;strokeColor=#d6b656;" vertex="1" parent="1">
          <mxGeometry x="580" y="495" width="40" height="40" as="geometry" />
        </mxCell>
        <mxCell id="5CnpQcvF3NgObZ_mpEZ_-121" value="2" style="rounded=0;whiteSpace=wrap;html=1;fillColor=#fff2cc;strokeColor=#d6b656;" vertex="1" parent="1">
          <mxGeometry x="620" y="495" width="40" height="40" as="geometry" />
        </mxCell>
        <mxCell id="5CnpQcvF3NgObZ_mpEZ_-122" value="3" style="rounded=0;whiteSpace=wrap;html=1;fillColor=#fff2cc;strokeColor=#d6b656;" vertex="1" parent="1">
          <mxGeometry x="660" y="495" width="40" height="40" as="geometry" />
        </mxCell>
        <mxCell id="5CnpQcvF3NgObZ_mpEZ_-123" value="4" style="rounded=0;whiteSpace=wrap;html=1;fillColor=#fff2cc;strokeColor=#d6b656;" vertex="1" parent="1">
          <mxGeometry x="700" y="495" width="40" height="40" as="geometry" />
        </mxCell>
        <mxCell id="5CnpQcvF3NgObZ_mpEZ_-124" value="5" style="rounded=0;whiteSpace=wrap;html=1;fillColor=#fff2cc;strokeColor=#d6b656;" vertex="1" parent="1">
          <mxGeometry x="740" y="495" width="40" height="40" as="geometry" />
        </mxCell>
        <mxCell id="5CnpQcvF3NgObZ_mpEZ_-125" value="6" style="rounded=0;whiteSpace=wrap;html=1;fillColor=#fff2cc;strokeColor=#d6b656;" vertex="1" parent="1">
          <mxGeometry x="780" y="495" width="40" height="40" as="geometry" />
        </mxCell>
        <mxCell id="5CnpQcvF3NgObZ_mpEZ_-126" value="7" style="rounded=0;whiteSpace=wrap;html=1;fillColor=#fff2cc;strokeColor=#d6b656;" vertex="1" parent="1">
          <mxGeometry x="580" y="535" width="40" height="40" as="geometry" />
        </mxCell>
        <mxCell id="5CnpQcvF3NgObZ_mpEZ_-127" value="8" style="rounded=0;whiteSpace=wrap;html=1;fillColor=#fff2cc;strokeColor=#d6b656;" vertex="1" parent="1">
          <mxGeometry x="620" y="535" width="40" height="40" as="geometry" />
        </mxCell>
        <mxCell id="5CnpQcvF3NgObZ_mpEZ_-128" value="9" style="rounded=0;whiteSpace=wrap;html=1;fillColor=#fff2cc;strokeColor=#d6b656;" vertex="1" parent="1">
          <mxGeometry x="660" y="535" width="40" height="40" as="geometry" />
        </mxCell>
        <mxCell id="5CnpQcvF3NgObZ_mpEZ_-129" value="10" style="rounded=0;whiteSpace=wrap;html=1;fillColor=#fff2cc;strokeColor=#d6b656;" vertex="1" parent="1">
          <mxGeometry x="700" y="535" width="40" height="40" as="geometry" />
        </mxCell>
        <mxCell id="5CnpQcvF3NgObZ_mpEZ_-130" value="11" style="rounded=0;whiteSpace=wrap;html=1;fillColor=#fff2cc;strokeColor=#d6b656;" vertex="1" parent="1">
          <mxGeometry x="740" y="535" width="40" height="40" as="geometry" />
        </mxCell>
        <mxCell id="5CnpQcvF3NgObZ_mpEZ_-131" value="12" style="rounded=0;whiteSpace=wrap;html=1;fillColor=#fff2cc;strokeColor=#d6b656;" vertex="1" parent="1">
          <mxGeometry x="780" y="535" width="40" height="40" as="geometry" />
        </mxCell>
        <mxCell id="5CnpQcvF3NgObZ_mpEZ_-136" value="&amp;lt;" style="rounded=0;whiteSpace=wrap;html=1;" vertex="1" parent="1">
          <mxGeometry x="740" y="585" width="40" height="40" as="geometry" />
        </mxCell>
        <mxCell id="5CnpQcvF3NgObZ_mpEZ_-137" value="&amp;gt;" style="rounded=0;whiteSpace=wrap;html=1;" vertex="1" parent="1">
          <mxGeometry x="780" y="585" width="40" height="40" as="geometry" />
        </mxCell>
        <mxCell id="5CnpQcvF3NgObZ_mpEZ_-138" value="" style="group" vertex="1" connectable="0" parent="1">
          <mxGeometry x="-290" y="465" width="840" height="245" as="geometry" />
        </mxCell>
        <mxCell id="5CnpQcvF3NgObZ_mpEZ_-6" value="" style="rounded=0;whiteSpace=wrap;html=1;" vertex="1" parent="5CnpQcvF3NgObZ_mpEZ_-138">
          <mxGeometry x="78.4" width="44.800000000000004" height="49" as="geometry" />
        </mxCell>
        <mxCell id="5CnpQcvF3NgObZ_mpEZ_-12" value="Solo" style="text;html=1;align=center;verticalAlign=middle;whiteSpace=wrap;rounded=0;" vertex="1" parent="5CnpQcvF3NgObZ_mpEZ_-138">
          <mxGeometry y="6.125" width="67.19999999999999" height="36.75" as="geometry" />
        </mxCell>
        <mxCell id="5CnpQcvF3NgObZ_mpEZ_-13" value="Swell" style="text;html=1;align=center;verticalAlign=middle;whiteSpace=wrap;rounded=0;" vertex="1" parent="5CnpQcvF3NgObZ_mpEZ_-138">
          <mxGeometry y="55.125" width="67.19999999999999" height="36.75" as="geometry" />
        </mxCell>
        <mxCell id="5CnpQcvF3NgObZ_mpEZ_-14" value="Great" style="text;html=1;align=center;verticalAlign=middle;whiteSpace=wrap;rounded=0;" vertex="1" parent="5CnpQcvF3NgObZ_mpEZ_-138">
          <mxGeometry y="104.125" width="67.19999999999999" height="36.75" as="geometry" />
        </mxCell>
        <mxCell id="5CnpQcvF3NgObZ_mpEZ_-15" value="Choir" style="text;html=1;align=center;verticalAlign=middle;whiteSpace=wrap;rounded=0;" vertex="1" parent="5CnpQcvF3NgObZ_mpEZ_-138">
          <mxGeometry y="153.125" width="67.19999999999999" height="36.75" as="geometry" />
        </mxCell>
        <mxCell id="5CnpQcvF3NgObZ_mpEZ_-16" value="Pedal" style="text;html=1;align=center;verticalAlign=middle;whiteSpace=wrap;rounded=0;" vertex="1" parent="5CnpQcvF3NgObZ_mpEZ_-138">
          <mxGeometry y="202.125" width="67.19999999999999" height="36.75" as="geometry" />
        </mxCell>
        <mxCell id="5CnpQcvF3NgObZ_mpEZ_-17" value="S/III" style="rounded=0;whiteSpace=wrap;html=1;fillColor=#fff2cc;strokeColor=#d6b656;" vertex="1" parent="5CnpQcvF3NgObZ_mpEZ_-138">
          <mxGeometry x="78.4" y="49" width="44.800000000000004" height="49" as="geometry" />
        </mxCell>
        <mxCell id="5CnpQcvF3NgObZ_mpEZ_-18" value="S/II" style="rounded=0;whiteSpace=wrap;html=1;fillColor=#fff2cc;strokeColor=#d6b656;" vertex="1" parent="5CnpQcvF3NgObZ_mpEZ_-138">
          <mxGeometry x="78.4" y="98" width="44.800000000000004" height="49" as="geometry" />
        </mxCell>
        <mxCell id="5CnpQcvF3NgObZ_mpEZ_-19" value="S/I" style="rounded=0;whiteSpace=wrap;html=1;fillColor=#fff2cc;strokeColor=#d6b656;" vertex="1" parent="5CnpQcvF3NgObZ_mpEZ_-138">
          <mxGeometry x="78.4" y="147" width="44.800000000000004" height="49" as="geometry" />
        </mxCell>
        <mxCell id="5CnpQcvF3NgObZ_mpEZ_-20" value="S/P" style="rounded=0;whiteSpace=wrap;html=1;fillColor=#fff2cc;strokeColor=#d6b656;" vertex="1" parent="5CnpQcvF3NgObZ_mpEZ_-138">
          <mxGeometry x="78.4" y="196" width="44.800000000000004" height="49" as="geometry" />
        </mxCell>
        <mxCell id="5CnpQcvF3NgObZ_mpEZ_-21" value="III/S" style="rounded=0;whiteSpace=wrap;html=1;fillColor=#fff2cc;strokeColor=#d6b656;" vertex="1" parent="5CnpQcvF3NgObZ_mpEZ_-138">
          <mxGeometry x="123.2" width="44.800000000000004" height="49" as="geometry" />
        </mxCell>
        <mxCell id="5CnpQcvF3NgObZ_mpEZ_-22" value="" style="rounded=0;whiteSpace=wrap;html=1;" vertex="1" parent="5CnpQcvF3NgObZ_mpEZ_-138">
          <mxGeometry x="123.2" y="49" width="44.800000000000004" height="49" as="geometry" />
        </mxCell>
        <mxCell id="5CnpQcvF3NgObZ_mpEZ_-23" value="III/II" style="rounded=0;whiteSpace=wrap;html=1;fillColor=#fff2cc;strokeColor=#d6b656;" vertex="1" parent="5CnpQcvF3NgObZ_mpEZ_-138">
          <mxGeometry x="123.2" y="98" width="44.800000000000004" height="49" as="geometry" />
        </mxCell>
        <mxCell id="5CnpQcvF3NgObZ_mpEZ_-24" value="III/I" style="rounded=0;whiteSpace=wrap;html=1;fillColor=#fff2cc;strokeColor=#d6b656;" vertex="1" parent="5CnpQcvF3NgObZ_mpEZ_-138">
          <mxGeometry x="123.2" y="147" width="44.800000000000004" height="49" as="geometry" />
        </mxCell>
        <mxCell id="5CnpQcvF3NgObZ_mpEZ_-25" value="III/P" style="rounded=0;whiteSpace=wrap;html=1;fillColor=#fff2cc;strokeColor=#d6b656;" vertex="1" parent="5CnpQcvF3NgObZ_mpEZ_-138">
          <mxGeometry x="123.2" y="196" width="44.800000000000004" height="49" as="geometry" />
        </mxCell>
        <mxCell id="5CnpQcvF3NgObZ_mpEZ_-26" value="II/S" style="rounded=0;whiteSpace=wrap;html=1;fillColor=#fff2cc;strokeColor=#d6b656;" vertex="1" parent="5CnpQcvF3NgObZ_mpEZ_-138">
          <mxGeometry x="168" width="44.800000000000004" height="49" as="geometry" />
        </mxCell>
        <mxCell id="5CnpQcvF3NgObZ_mpEZ_-27" value="II/III" style="rounded=0;whiteSpace=wrap;html=1;fillColor=#fff2cc;strokeColor=#d6b656;" vertex="1" parent="5CnpQcvF3NgObZ_mpEZ_-138">
          <mxGeometry x="168" y="49" width="44.800000000000004" height="49" as="geometry" />
        </mxCell>
        <mxCell id="5CnpQcvF3NgObZ_mpEZ_-28" value="" style="rounded=0;whiteSpace=wrap;html=1;" vertex="1" parent="5CnpQcvF3NgObZ_mpEZ_-138">
          <mxGeometry x="168" y="98" width="44.800000000000004" height="49" as="geometry" />
        </mxCell>
        <mxCell id="5CnpQcvF3NgObZ_mpEZ_-29" value="II/I" style="rounded=0;whiteSpace=wrap;html=1;fillColor=#fff2cc;strokeColor=#d6b656;" vertex="1" parent="5CnpQcvF3NgObZ_mpEZ_-138">
          <mxGeometry x="168" y="147" width="44.800000000000004" height="49" as="geometry" />
        </mxCell>
        <mxCell id="5CnpQcvF3NgObZ_mpEZ_-30" value="II/P" style="rounded=0;whiteSpace=wrap;html=1;fillColor=#fff2cc;strokeColor=#d6b656;" vertex="1" parent="5CnpQcvF3NgObZ_mpEZ_-138">
          <mxGeometry x="168" y="196" width="44.800000000000004" height="49" as="geometry" />
        </mxCell>
        <mxCell id="5CnpQcvF3NgObZ_mpEZ_-31" value="I/S" style="rounded=0;whiteSpace=wrap;html=1;fillColor=#fff2cc;strokeColor=#d6b656;" vertex="1" parent="5CnpQcvF3NgObZ_mpEZ_-138">
          <mxGeometry x="212.79999999999998" width="44.800000000000004" height="49" as="geometry" />
        </mxCell>
        <mxCell id="5CnpQcvF3NgObZ_mpEZ_-32" value="I/III" style="rounded=0;whiteSpace=wrap;html=1;fillColor=#fff2cc;strokeColor=#d6b656;" vertex="1" parent="5CnpQcvF3NgObZ_mpEZ_-138">
          <mxGeometry x="212.79999999999998" y="49" width="44.800000000000004" height="49" as="geometry" />
        </mxCell>
        <mxCell id="5CnpQcvF3NgObZ_mpEZ_-33" value="I/II" style="rounded=0;whiteSpace=wrap;html=1;fillColor=#fff2cc;strokeColor=#d6b656;" vertex="1" parent="5CnpQcvF3NgObZ_mpEZ_-138">
          <mxGeometry x="212.79999999999998" y="98" width="44.800000000000004" height="49" as="geometry" />
        </mxCell>
        <mxCell id="5CnpQcvF3NgObZ_mpEZ_-34" value="" style="rounded=0;whiteSpace=wrap;html=1;" vertex="1" parent="5CnpQcvF3NgObZ_mpEZ_-138">
          <mxGeometry x="212.79999999999998" y="147" width="44.800000000000004" height="49" as="geometry" />
        </mxCell>
        <mxCell id="5CnpQcvF3NgObZ_mpEZ_-35" value="I/P" style="rounded=0;whiteSpace=wrap;html=1;fillColor=#fff2cc;strokeColor=#d6b656;" vertex="1" parent="5CnpQcvF3NgObZ_mpEZ_-138">
          <mxGeometry x="212.79999999999998" y="196" width="44.800000000000004" height="49" as="geometry" />
        </mxCell>
        <mxCell id="5CnpQcvF3NgObZ_mpEZ_-36" value="P/S" style="rounded=0;whiteSpace=wrap;html=1;fillColor=#fff2cc;strokeColor=#d6b656;" vertex="1" parent="5CnpQcvF3NgObZ_mpEZ_-138">
          <mxGeometry x="257.59999999999997" width="44.800000000000004" height="49" as="geometry" />
        </mxCell>
        <mxCell id="5CnpQcvF3NgObZ_mpEZ_-37" value="P/III" style="rounded=0;whiteSpace=wrap;html=1;fillColor=#fff2cc;strokeColor=#d6b656;" vertex="1" parent="5CnpQcvF3NgObZ_mpEZ_-138">
          <mxGeometry x="257.59999999999997" y="49" width="44.800000000000004" height="49" as="geometry" />
        </mxCell>
        <mxCell id="5CnpQcvF3NgObZ_mpEZ_-38" value="P/II" style="rounded=0;whiteSpace=wrap;html=1;fillColor=#fff2cc;strokeColor=#d6b656;" vertex="1" parent="5CnpQcvF3NgObZ_mpEZ_-138">
          <mxGeometry x="257.59999999999997" y="98" width="44.800000000000004" height="49" as="geometry" />
        </mxCell>
        <mxCell id="5CnpQcvF3NgObZ_mpEZ_-39" value="P/I" style="rounded=0;whiteSpace=wrap;html=1;fillColor=#fff2cc;strokeColor=#d6b656;" vertex="1" parent="5CnpQcvF3NgObZ_mpEZ_-138">
          <mxGeometry x="257.59999999999997" y="147" width="44.800000000000004" height="49" as="geometry" />
        </mxCell>
        <mxCell id="5CnpQcvF3NgObZ_mpEZ_-40" value="" style="rounded=0;whiteSpace=wrap;html=1;" vertex="1" parent="5CnpQcvF3NgObZ_mpEZ_-138">
          <mxGeometry x="257.59999999999997" y="196" width="44.800000000000004" height="49" as="geometry" />
        </mxCell>
        <mxCell id="5CnpQcvF3NgObZ_mpEZ_-56" value="4&quot;" style="rounded=0;whiteSpace=wrap;html=1;fillColor=#fff2cc;strokeColor=#d6b656;" vertex="1" parent="5CnpQcvF3NgObZ_mpEZ_-138">
          <mxGeometry x="324.8" width="44.800000000000004" height="49" as="geometry" />
        </mxCell>
        <mxCell id="5CnpQcvF3NgObZ_mpEZ_-57" value="16&quot;" style="rounded=0;whiteSpace=wrap;html=1;fillColor=#fff2cc;strokeColor=#d6b656;" vertex="1" parent="5CnpQcvF3NgObZ_mpEZ_-138">
          <mxGeometry x="369.59999999999997" width="44.800000000000004" height="49" as="geometry" />
        </mxCell>
        <mxCell id="5CnpQcvF3NgObZ_mpEZ_-58" value="Off" style="rounded=0;whiteSpace=wrap;html=1;fillColor=#f8cecc;strokeColor=#b85450;" vertex="1" parent="5CnpQcvF3NgObZ_mpEZ_-138">
          <mxGeometry x="436.8" width="44.800000000000004" height="49" as="geometry" />
        </mxCell>
        <mxCell id="5CnpQcvF3NgObZ_mpEZ_-59" value="1" style="rounded=0;whiteSpace=wrap;html=1;fillColor=#fff2cc;strokeColor=#d6b656;" vertex="1" parent="5CnpQcvF3NgObZ_mpEZ_-138">
          <mxGeometry x="503.99999999999994" width="44.800000000000004" height="49" as="geometry" />
        </mxCell>
        <mxCell id="5CnpQcvF3NgObZ_mpEZ_-60" value="2" style="rounded=0;whiteSpace=wrap;html=1;fillColor=#fff2cc;strokeColor=#d6b656;" vertex="1" parent="5CnpQcvF3NgObZ_mpEZ_-138">
          <mxGeometry x="548.8000000000001" width="44.800000000000004" height="49" as="geometry" />
        </mxCell>
        <mxCell id="5CnpQcvF3NgObZ_mpEZ_-61" value="3" style="rounded=0;whiteSpace=wrap;html=1;fillColor=#fff2cc;strokeColor=#d6b656;" vertex="1" parent="5CnpQcvF3NgObZ_mpEZ_-138">
          <mxGeometry x="593.5999999999999" width="44.800000000000004" height="49" as="geometry" />
        </mxCell>
        <mxCell id="5CnpQcvF3NgObZ_mpEZ_-62" value="4" style="rounded=0;whiteSpace=wrap;html=1;fillColor=#fff2cc;strokeColor=#d6b656;" vertex="1" parent="5CnpQcvF3NgObZ_mpEZ_-138">
          <mxGeometry x="638.4" width="44.800000000000004" height="49" as="geometry" />
        </mxCell>
        <mxCell id="5CnpQcvF3NgObZ_mpEZ_-63" value="5" style="rounded=0;whiteSpace=wrap;html=1;fillColor=#fff2cc;strokeColor=#d6b656;" vertex="1" parent="5CnpQcvF3NgObZ_mpEZ_-138">
          <mxGeometry x="683.1999999999999" width="44.800000000000004" height="49" as="geometry" />
        </mxCell>
        <mxCell id="5CnpQcvF3NgObZ_mpEZ_-64" value="C" style="rounded=0;whiteSpace=wrap;html=1;" vertex="1" parent="5CnpQcvF3NgObZ_mpEZ_-138">
          <mxGeometry x="728" width="44.800000000000004" height="49" as="geometry" />
        </mxCell>
        <mxCell id="5CnpQcvF3NgObZ_mpEZ_-65" value="Cr" style="rounded=0;whiteSpace=wrap;html=1;fillColor=#f8cecc;strokeColor=#b85450;" vertex="1" parent="5CnpQcvF3NgObZ_mpEZ_-138">
          <mxGeometry x="795.2" width="44.800000000000004" height="49" as="geometry" />
        </mxCell>
        <mxCell id="5CnpQcvF3NgObZ_mpEZ_-66" value="4&quot;" style="rounded=0;whiteSpace=wrap;html=1;fillColor=#fff2cc;strokeColor=#d6b656;" vertex="1" parent="5CnpQcvF3NgObZ_mpEZ_-138">
          <mxGeometry x="324.8" y="49" width="44.800000000000004" height="49" as="geometry" />
        </mxCell>
        <mxCell id="5CnpQcvF3NgObZ_mpEZ_-67" value="16&quot;" style="rounded=0;whiteSpace=wrap;html=1;fillColor=#fff2cc;strokeColor=#d6b656;" vertex="1" parent="5CnpQcvF3NgObZ_mpEZ_-138">
          <mxGeometry x="369.59999999999997" y="49" width="44.800000000000004" height="49" as="geometry" />
        </mxCell>
        <mxCell id="5CnpQcvF3NgObZ_mpEZ_-68" value="Off" style="rounded=0;whiteSpace=wrap;html=1;fillColor=#f8cecc;strokeColor=#b85450;" vertex="1" parent="5CnpQcvF3NgObZ_mpEZ_-138">
          <mxGeometry x="436.8" y="49" width="44.800000000000004" height="49" as="geometry" />
        </mxCell>
        <mxCell id="5CnpQcvF3NgObZ_mpEZ_-69" value="1" style="rounded=0;whiteSpace=wrap;html=1;fillColor=#fff2cc;strokeColor=#d6b656;" vertex="1" parent="5CnpQcvF3NgObZ_mpEZ_-138">
          <mxGeometry x="503.99999999999994" y="49" width="44.800000000000004" height="49" as="geometry" />
        </mxCell>
        <mxCell id="5CnpQcvF3NgObZ_mpEZ_-70" value="2" style="rounded=0;whiteSpace=wrap;html=1;fillColor=#fff2cc;strokeColor=#d6b656;" vertex="1" parent="5CnpQcvF3NgObZ_mpEZ_-138">
          <mxGeometry x="548.8000000000001" y="49" width="44.800000000000004" height="49" as="geometry" />
        </mxCell>
        <mxCell id="5CnpQcvF3NgObZ_mpEZ_-71" value="3" style="rounded=0;whiteSpace=wrap;html=1;fillColor=#fff2cc;strokeColor=#d6b656;" vertex="1" parent="5CnpQcvF3NgObZ_mpEZ_-138">
          <mxGeometry x="593.5999999999999" y="49" width="44.800000000000004" height="49" as="geometry" />
        </mxCell>
        <mxCell id="5CnpQcvF3NgObZ_mpEZ_-72" value="4" style="rounded=0;whiteSpace=wrap;html=1;fillColor=#fff2cc;strokeColor=#d6b656;" vertex="1" parent="5CnpQcvF3NgObZ_mpEZ_-138">
          <mxGeometry x="638.4" y="49" width="44.800000000000004" height="49" as="geometry" />
        </mxCell>
        <mxCell id="5CnpQcvF3NgObZ_mpEZ_-73" value="5" style="rounded=0;whiteSpace=wrap;html=1;fillColor=#fff2cc;strokeColor=#d6b656;" vertex="1" parent="5CnpQcvF3NgObZ_mpEZ_-138">
          <mxGeometry x="683.1999999999999" y="49" width="44.800000000000004" height="49" as="geometry" />
        </mxCell>
        <mxCell id="5CnpQcvF3NgObZ_mpEZ_-74" value="C" style="rounded=0;whiteSpace=wrap;html=1;" vertex="1" parent="5CnpQcvF3NgObZ_mpEZ_-138">
          <mxGeometry x="728" y="49" width="44.800000000000004" height="49" as="geometry" />
        </mxCell>
        <mxCell id="5CnpQcvF3NgObZ_mpEZ_-75" value="Cr" style="rounded=0;whiteSpace=wrap;html=1;fillColor=#f8cecc;strokeColor=#b85450;" vertex="1" parent="5CnpQcvF3NgObZ_mpEZ_-138">
          <mxGeometry x="795.2" y="49" width="44.800000000000004" height="49" as="geometry" />
        </mxCell>
        <mxCell id="5CnpQcvF3NgObZ_mpEZ_-76" value="4&quot;" style="rounded=0;whiteSpace=wrap;html=1;fillColor=#fff2cc;strokeColor=#d6b656;" vertex="1" parent="5CnpQcvF3NgObZ_mpEZ_-138">
          <mxGeometry x="324.8" y="98" width="44.800000000000004" height="49" as="geometry" />
        </mxCell>
        <mxCell id="5CnpQcvF3NgObZ_mpEZ_-77" value="16&quot;" style="rounded=0;whiteSpace=wrap;html=1;fillColor=#fff2cc;strokeColor=#d6b656;" vertex="1" parent="5CnpQcvF3NgObZ_mpEZ_-138">
          <mxGeometry x="369.59999999999997" y="98" width="44.800000000000004" height="49" as="geometry" />
        </mxCell>
        <mxCell id="5CnpQcvF3NgObZ_mpEZ_-78" value="Off" style="rounded=0;whiteSpace=wrap;html=1;fillColor=#f8cecc;strokeColor=#b85450;" vertex="1" parent="5CnpQcvF3NgObZ_mpEZ_-138">
          <mxGeometry x="436.8" y="98" width="44.800000000000004" height="49" as="geometry" />
        </mxCell>
        <mxCell id="5CnpQcvF3NgObZ_mpEZ_-79" value="1" style="rounded=0;whiteSpace=wrap;html=1;fillColor=#fff2cc;strokeColor=#d6b656;" vertex="1" parent="5CnpQcvF3NgObZ_mpEZ_-138">
          <mxGeometry x="503.99999999999994" y="98" width="44.800000000000004" height="49" as="geometry" />
        </mxCell>
        <mxCell id="5CnpQcvF3NgObZ_mpEZ_-80" value="2" style="rounded=0;whiteSpace=wrap;html=1;fillColor=#fff2cc;strokeColor=#d6b656;" vertex="1" parent="5CnpQcvF3NgObZ_mpEZ_-138">
          <mxGeometry x="548.8000000000001" y="98" width="44.800000000000004" height="49" as="geometry" />
        </mxCell>
        <mxCell id="5CnpQcvF3NgObZ_mpEZ_-81" value="3" style="rounded=0;whiteSpace=wrap;html=1;fillColor=#fff2cc;strokeColor=#d6b656;" vertex="1" parent="5CnpQcvF3NgObZ_mpEZ_-138">
          <mxGeometry x="593.5999999999999" y="98" width="44.800000000000004" height="49" as="geometry" />
        </mxCell>
        <mxCell id="5CnpQcvF3NgObZ_mpEZ_-82" value="4" style="rounded=0;whiteSpace=wrap;html=1;fillColor=#fff2cc;strokeColor=#d6b656;" vertex="1" parent="5CnpQcvF3NgObZ_mpEZ_-138">
          <mxGeometry x="638.4" y="98" width="44.800000000000004" height="49" as="geometry" />
        </mxCell>
        <mxCell id="5CnpQcvF3NgObZ_mpEZ_-83" value="5" style="rounded=0;whiteSpace=wrap;html=1;fillColor=#fff2cc;strokeColor=#d6b656;" vertex="1" parent="5CnpQcvF3NgObZ_mpEZ_-138">
          <mxGeometry x="683.1999999999999" y="98" width="44.800000000000004" height="49" as="geometry" />
        </mxCell>
        <mxCell id="5CnpQcvF3NgObZ_mpEZ_-84" value="C" style="rounded=0;whiteSpace=wrap;html=1;" vertex="1" parent="5CnpQcvF3NgObZ_mpEZ_-138">
          <mxGeometry x="728" y="98" width="44.800000000000004" height="49" as="geometry" />
        </mxCell>
        <mxCell id="5CnpQcvF3NgObZ_mpEZ_-85" value="Cr" style="rounded=0;whiteSpace=wrap;html=1;fillColor=#f8cecc;strokeColor=#b85450;" vertex="1" parent="5CnpQcvF3NgObZ_mpEZ_-138">
          <mxGeometry x="795.2" y="98" width="44.800000000000004" height="49" as="geometry" />
        </mxCell>
        <mxCell id="5CnpQcvF3NgObZ_mpEZ_-96" value="4&quot;" style="rounded=0;whiteSpace=wrap;html=1;fillColor=#fff2cc;strokeColor=#d6b656;" vertex="1" parent="5CnpQcvF3NgObZ_mpEZ_-138">
          <mxGeometry x="324.8" y="147" width="44.800000000000004" height="49" as="geometry" />
        </mxCell>
        <mxCell id="5CnpQcvF3NgObZ_mpEZ_-97" value="16&quot;" style="rounded=0;whiteSpace=wrap;html=1;fillColor=#fff2cc;strokeColor=#d6b656;" vertex="1" parent="5CnpQcvF3NgObZ_mpEZ_-138">
          <mxGeometry x="369.59999999999997" y="147" width="44.800000000000004" height="49" as="geometry" />
        </mxCell>
        <mxCell id="5CnpQcvF3NgObZ_mpEZ_-98" value="Off" style="rounded=0;whiteSpace=wrap;html=1;fillColor=#f8cecc;strokeColor=#b85450;" vertex="1" parent="5CnpQcvF3NgObZ_mpEZ_-138">
          <mxGeometry x="436.8" y="147" width="44.800000000000004" height="49" as="geometry" />
        </mxCell>
        <mxCell id="5CnpQcvF3NgObZ_mpEZ_-99" value="1" style="rounded=0;whiteSpace=wrap;html=1;fillColor=#fff2cc;strokeColor=#d6b656;" vertex="1" parent="5CnpQcvF3NgObZ_mpEZ_-138">
          <mxGeometry x="503.99999999999994" y="147" width="44.800000000000004" height="49" as="geometry" />
        </mxCell>
        <mxCell id="5CnpQcvF3NgObZ_mpEZ_-100" value="2" style="rounded=0;whiteSpace=wrap;html=1;fillColor=#fff2cc;strokeColor=#d6b656;" vertex="1" parent="5CnpQcvF3NgObZ_mpEZ_-138">
          <mxGeometry x="548.8000000000001" y="147" width="44.800000000000004" height="49" as="geometry" />
        </mxCell>
        <mxCell id="5CnpQcvF3NgObZ_mpEZ_-101" value="3" style="rounded=0;whiteSpace=wrap;html=1;fillColor=#fff2cc;strokeColor=#d6b656;" vertex="1" parent="5CnpQcvF3NgObZ_mpEZ_-138">
          <mxGeometry x="593.5999999999999" y="147" width="44.800000000000004" height="49" as="geometry" />
        </mxCell>
        <mxCell id="5CnpQcvF3NgObZ_mpEZ_-102" value="4" style="rounded=0;whiteSpace=wrap;html=1;fillColor=#fff2cc;strokeColor=#d6b656;" vertex="1" parent="5CnpQcvF3NgObZ_mpEZ_-138">
          <mxGeometry x="638.4" y="147" width="44.800000000000004" height="49" as="geometry" />
        </mxCell>
        <mxCell id="5CnpQcvF3NgObZ_mpEZ_-103" value="5" style="rounded=0;whiteSpace=wrap;html=1;fillColor=#fff2cc;strokeColor=#d6b656;" vertex="1" parent="5CnpQcvF3NgObZ_mpEZ_-138">
          <mxGeometry x="683.1999999999999" y="147" width="44.800000000000004" height="49" as="geometry" />
        </mxCell>
        <mxCell id="5CnpQcvF3NgObZ_mpEZ_-104" value="C" style="rounded=0;whiteSpace=wrap;html=1;" vertex="1" parent="5CnpQcvF3NgObZ_mpEZ_-138">
          <mxGeometry x="728" y="147" width="44.800000000000004" height="49" as="geometry" />
        </mxCell>
        <mxCell id="5CnpQcvF3NgObZ_mpEZ_-105" value="Cr" style="rounded=0;whiteSpace=wrap;html=1;fillColor=#f8cecc;strokeColor=#b85450;" vertex="1" parent="5CnpQcvF3NgObZ_mpEZ_-138">
          <mxGeometry x="795.2" y="147" width="44.800000000000004" height="49" as="geometry" />
        </mxCell>
        <mxCell id="5CnpQcvF3NgObZ_mpEZ_-106" value="4&quot;" style="rounded=0;whiteSpace=wrap;html=1;fillColor=#fff2cc;strokeColor=#d6b656;" vertex="1" parent="5CnpQcvF3NgObZ_mpEZ_-138">
          <mxGeometry x="324.8" y="196" width="44.800000000000004" height="49" as="geometry" />
        </mxCell>
        <mxCell id="5CnpQcvF3NgObZ_mpEZ_-107" value="16&quot;" style="rounded=0;whiteSpace=wrap;html=1;fillColor=#fff2cc;strokeColor=#d6b656;" vertex="1" parent="5CnpQcvF3NgObZ_mpEZ_-138">
          <mxGeometry x="369.59999999999997" y="196" width="44.800000000000004" height="49" as="geometry" />
        </mxCell>
        <mxCell id="5CnpQcvF3NgObZ_mpEZ_-108" value="Off" style="rounded=0;whiteSpace=wrap;html=1;fillColor=#f8cecc;strokeColor=#b85450;" vertex="1" parent="5CnpQcvF3NgObZ_mpEZ_-138">
          <mxGeometry x="436.8" y="196" width="44.800000000000004" height="49" as="geometry" />
        </mxCell>
        <mxCell id="5CnpQcvF3NgObZ_mpEZ_-109" value="1" style="rounded=0;whiteSpace=wrap;html=1;fillColor=#fff2cc;strokeColor=#d6b656;" vertex="1" parent="5CnpQcvF3NgObZ_mpEZ_-138">
          <mxGeometry x="503.99999999999994" y="196" width="44.800000000000004" height="49" as="geometry" />
        </mxCell>
        <mxCell id="5CnpQcvF3NgObZ_mpEZ_-110" value="2" style="rounded=0;whiteSpace=wrap;html=1;fillColor=#fff2cc;strokeColor=#d6b656;" vertex="1" parent="5CnpQcvF3NgObZ_mpEZ_-138">
          <mxGeometry x="548.8000000000001" y="196" width="44.800000000000004" height="49" as="geometry" />
        </mxCell>
        <mxCell id="5CnpQcvF3NgObZ_mpEZ_-111" value="3" style="rounded=0;whiteSpace=wrap;html=1;fillColor=#fff2cc;strokeColor=#d6b656;" vertex="1" parent="5CnpQcvF3NgObZ_mpEZ_-138">
          <mxGeometry x="593.5999999999999" y="196" width="44.800000000000004" height="49" as="geometry" />
        </mxCell>
        <mxCell id="5CnpQcvF3NgObZ_mpEZ_-112" value="4" style="rounded=0;whiteSpace=wrap;html=1;fillColor=#fff2cc;strokeColor=#d6b656;" vertex="1" parent="5CnpQcvF3NgObZ_mpEZ_-138">
          <mxGeometry x="638.4" y="196" width="44.800000000000004" height="49" as="geometry" />
        </mxCell>
        <mxCell id="5CnpQcvF3NgObZ_mpEZ_-113" value="5" style="rounded=0;whiteSpace=wrap;html=1;fillColor=#fff2cc;strokeColor=#d6b656;" vertex="1" parent="5CnpQcvF3NgObZ_mpEZ_-138">
          <mxGeometry x="683.1999999999999" y="196" width="44.800000000000004" height="49" as="geometry" />
        </mxCell>
        <mxCell id="5CnpQcvF3NgObZ_mpEZ_-114" value="C" style="rounded=0;whiteSpace=wrap;html=1;" vertex="1" parent="5CnpQcvF3NgObZ_mpEZ_-138">
          <mxGeometry x="728" y="196" width="44.800000000000004" height="49" as="geometry" />
        </mxCell>
        <mxCell id="5CnpQcvF3NgObZ_mpEZ_-115" value="Cr" style="rounded=0;whiteSpace=wrap;html=1;fillColor=#f8cecc;strokeColor=#b85450;" vertex="1" parent="5CnpQcvF3NgObZ_mpEZ_-138">
          <mxGeometry x="795.2" y="196" width="44.800000000000004" height="49" as="geometry" />
        </mxCell>
        <mxCell id="5CnpQcvF3NgObZ_mpEZ_-139" value="Coupler&lt;br&gt;Enable" style="rounded=0;whiteSpace=wrap;html=1;fillColor=#ffe6cc;strokeColor=#d79b00;" vertex="1" parent="1">
          <mxGeometry x="585" y="650" width="50" height="50" as="geometry" />
        </mxCell>
        <mxCell id="5CnpQcvF3NgObZ_mpEZ_-140" value="MIDI&lt;br&gt;OUT" style="rounded=0;whiteSpace=wrap;html=1;fillColor=#ffe6cc;strokeColor=#d79b00;" vertex="1" parent="1">
          <mxGeometry x="645" y="650" width="50" height="50" as="geometry" />
        </mxCell>
        <mxCell id="5CnpQcvF3NgObZ_mpEZ_-141" value="MIDI&lt;br&gt;USB" style="rounded=0;whiteSpace=wrap;html=1;fillColor=#ffe6cc;strokeColor=#d79b00;" vertex="1" parent="1">
          <mxGeometry x="705" y="650" width="50" height="50" as="geometry" />
        </mxCell>
        <mxCell id="5CnpQcvF3NgObZ_mpEZ_-142" value="MIDI&lt;br&gt;Ethernet" style="rounded=0;whiteSpace=wrap;html=1;fillColor=#ffe6cc;strokeColor=#d79b00;" vertex="1" parent="1">
          <mxGeometry x="765" y="650" width="50" height="50" as="geometry" />
        </mxCell>
        <mxCell id="5CnpQcvF3NgObZ_mpEZ_-147" value="5V" style="rounded=0;whiteSpace=wrap;html=1;fillColor=#d5e8d4;strokeColor=#82b366;" vertex="1" parent="1">
          <mxGeometry x="-290" y="1020" width="40" height="20" as="geometry" />
        </mxCell>
        <mxCell id="5CnpQcvF3NgObZ_mpEZ_-148" value="12V" style="rounded=0;whiteSpace=wrap;html=1;fillColor=#d5e8d4;strokeColor=#82b366;" vertex="1" parent="1">
          <mxGeometry x="-240" y="1020" width="40" height="20" as="geometry" />
        </mxCell>
        <mxCell id="5CnpQcvF3NgObZ_mpEZ_-149" value="Home" style="rounded=0;whiteSpace=wrap;html=1;" vertex="1" parent="1">
          <mxGeometry x="30" y="800" width="50" height="50" as="geometry" />
        </mxCell>
        <mxCell id="5CnpQcvF3NgObZ_mpEZ_-150" value="MIDI&lt;br&gt;Coupler" style="rounded=0;whiteSpace=wrap;html=1;" vertex="1" parent="1">
          <mxGeometry x="30" y="860" width="50" height="50" as="geometry" />
        </mxCell>
        <mxCell id="5CnpQcvF3NgObZ_mpEZ_-151" value="&lt;div&gt;MIDI&lt;/div&gt;Router" style="rounded=0;whiteSpace=wrap;html=1;" vertex="1" parent="1">
          <mxGeometry x="90" y="860" width="50" height="50" as="geometry" />
        </mxCell>
        <mxCell id="5CnpQcvF3NgObZ_mpEZ_-152" value="Seq&lt;div&gt;&lt;/div&gt;" style="rounded=0;whiteSpace=wrap;html=1;" vertex="1" parent="1">
          <mxGeometry x="150" y="860" width="50" height="50" as="geometry" />
        </mxCell>
        <mxCell id="5CnpQcvF3NgObZ_mpEZ_-153" value="Audio&lt;div&gt;&lt;/div&gt;" style="rounded=0;whiteSpace=wrap;html=1;" vertex="1" parent="1">
          <mxGeometry x="210" y="800" width="50" height="50" as="geometry" />
        </mxCell>
        <mxCell id="5CnpQcvF3NgObZ_mpEZ_-154" value="Synth&lt;div&gt;&lt;/div&gt;" style="rounded=0;whiteSpace=wrap;html=1;" vertex="1" parent="1">
          <mxGeometry x="210" y="860" width="50" height="50" as="geometry" />
        </mxCell>
        <mxCell id="5CnpQcvF3NgObZ_mpEZ_-155" value="Settings&lt;div&gt;&lt;/div&gt;" style="rounded=0;whiteSpace=wrap;html=1;" vertex="1" parent="1">
          <mxGeometry x="90" y="800" width="50" height="50" as="geometry" />
        </mxCell>
        <mxCell id="5CnpQcvF3NgObZ_mpEZ_-156" value="Presets&lt;div&gt;&lt;/div&gt;" style="rounded=0;whiteSpace=wrap;html=1;" vertex="1" parent="1">
          <mxGeometry x="150" y="800" width="50" height="50" as="geometry" />
        </mxCell>
        <mxCell id="5CnpQcvF3NgObZ_mpEZ_-157" value="MIDI&lt;div&gt;USB&lt;/div&gt;" style="rounded=0;whiteSpace=wrap;html=1;fillColor=#ffe6cc;strokeColor=#d79b00;" vertex="1" parent="1">
          <mxGeometry x="390" y="880" width="70" height="70" as="geometry" />
        </mxCell>
        <mxCell id="5CnpQcvF3NgObZ_mpEZ_-158" value="Coupler&lt;br&gt;MIDI" style="rounded=0;whiteSpace=wrap;html=1;fillColor=#ffe6cc;strokeColor=#d79b00;" vertex="1" parent="1">
          <mxGeometry x="390" y="800" width="70" height="70" as="geometry" />
        </mxCell>
        <mxCell id="5CnpQcvF3NgObZ_mpEZ_-159" value="Coupler&lt;br&gt;Enable" style="rounded=0;whiteSpace=wrap;html=1;fillColor=#ffe6cc;strokeColor=#d79b00;" vertex="1" parent="1">
          <mxGeometry x="310" y="800" width="70" height="70" as="geometry" />
        </mxCell>
        <mxCell id="5CnpQcvF3NgObZ_mpEZ_-160" value="MIDI&amp;nbsp;&lt;div&gt;OUT&lt;/div&gt;" style="rounded=0;whiteSpace=wrap;html=1;fillColor=#ffe6cc;strokeColor=#d79b00;" vertex="1" parent="1">
          <mxGeometry x="310" y="880" width="70" height="70" as="geometry" />
        </mxCell>
        <mxCell id="5CnpQcvF3NgObZ_mpEZ_-161" value="Enter&lt;div&gt;&lt;/div&gt;" style="rounded=0;whiteSpace=wrap;html=1;" vertex="1" parent="1">
          <mxGeometry x="-90" y="800" width="50" height="50" as="geometry" />
        </mxCell>
        <mxCell id="5CnpQcvF3NgObZ_mpEZ_-163" value="Back&lt;div&gt;&lt;/div&gt;" style="rounded=0;whiteSpace=wrap;html=1;" vertex="1" parent="1">
          <mxGeometry x="-90" y="860" width="50" height="50" as="geometry" />
        </mxCell>
        <mxCell id="5CnpQcvF3NgObZ_mpEZ_-164" value="Control" style="rounded=0;whiteSpace=wrap;html=1;fillColor=#d5e8d4;strokeColor=#82b366;" vertex="1" parent="1">
          <mxGeometry x="-190" y="1020" width="40" height="20" as="geometry" />
        </mxCell>
      </root>
    </mxGraphModel>
  </diagram>
</mxfile>
